<svg version="1.1" xmlns="http://www.w3.org/2000/svg" xmlns:xlink="http://www.w3.org/1999/xlink" preserveAspectRatio="xMidYMid meet" viewBox="176.90123649459775 257.0637094837935 266.50692677070816 163.46750300120055" {{ with .width }} width="{{ . }}" {{ end }} {{ with .height }} height="{{ . }}" {{ end }} {{ with .class }} class="{{ . }}" {{ end }}>
    <defs>
        <path d="M322.95 417.53L322.95 310.63L361.89 417.53L382.96 417.53L418.39 310.63L418.39 417.53L440.41 417.53L439.97 345.72L439.45 259.37L414.87 259.37L393.97 316.95L372.74 375.41L328.7 259.37L300.61 259.37L300.61 339.24L300.61 417.53L322.95 417.53Z" id="i5s7LSUN"></path>
        <path d="M243.42 258.18L245.36 258.33L247.25 258.53L249.12 258.79L250.94 259.11L252.73 259.48L254.48 259.91L256.19 260.39L257.85 260.92L259.48 261.51L261.06 262.15L262.6 262.83L264.1 263.57L265.55 264.36L266.96 265.19L268.32 266.08L269.63 267.01L270.89 267.98L272.1 269L273.26 270.07L274.37 271.18L275.43 272.33L276.44 273.53L277.39 274.77L278.28 276.05L279.12 277.37L279.91 278.73L280.64 280.12L281.3 281.56L281.91 283.03L282.46 284.54L282.95 286.09L283.37 287.67L283.73 289.28L284.03 290.93L284.27 292.61L284.43 294.33L284.53 296.07L284.57 297.85L284.55 299.09L284.48 300.33L284.37 301.56L284.22 302.78L284.02 303.99L283.79 305.2L283.52 306.39L283.2 307.57L282.85 308.74L282.46 309.9L282.03 311.04L281.57 312.16L281.07 313.27L280.54 314.36L279.98 315.43L279.38 316.47L278.75 317.5L278.09 318.5L277.4 319.48L276.68 320.44L275.94 321.37L275.16 322.27L274.36 323.14L273.53 323.99L272.68 324.8L271.8 325.59L270.9 326.34L269.98 327.06L269.04 327.74L268.07 328.39L267.08 329L266.08 329.57L265.06 330.1L264.02 330.59L262.96 331.05L261.88 331.46L260.79 331.82L259.69 332.15L258.57 332.42L257.44 332.65L257.44 333.54L259.03 333.77L260.59 334.05L262.12 334.37L263.62 334.74L265.08 335.15L266.52 335.6L267.92 336.1L269.29 336.64L270.63 337.23L271.93 337.85L273.2 338.52L274.44 339.22L275.64 339.97L276.8 340.75L277.93 341.57L279.02 342.43L280.07 343.33L281.08 344.26L282.06 345.23L282.99 346.23L283.89 347.27L284.74 348.35L285.55 349.45L286.32 350.59L287.05 351.76L287.74 352.97L288.38 354.2L288.98 355.46L289.53 356.76L290.04 358.08L290.51 359.43L290.92 360.81L291.29 362.21L291.62 363.65L291.89 365.11L292.12 366.59L292.29 368.1L292.42 369.63L292.5 371.19L292.52 372.77L292.48 374.85L292.37 376.89L292.19 378.89L291.93 380.84L291.6 382.75L291.2 384.61L290.73 386.43L290.19 388.2L289.58 389.93L288.9 391.61L288.15 393.23L287.33 394.82L286.45 396.35L285.5 397.83L284.48 399.27L283.4 400.65L282.25 401.98L281.04 403.27L279.76 404.5L278.43 405.68L277.02 406.8L275.56 407.87L274.03 408.89L272.45 409.86L270.8 410.77L269.09 411.62L267.33 412.42L265.5 413.17L263.62 413.85L261.68 414.48L259.68 415.06L257.63 415.57L255.52 416.03L253.36 416.42L251.14 416.76L248.87 417.04L246.54 417.25L244.16 417.41L241.73 417.5L239.25 417.53L177.9 417.53L177.9 258.06L239.45 258.06L241.45 258.09L243.42 258.18ZM197.51 399.97L236.29 399.96L238.04 399.94L239.75 399.89L241.42 399.79L243.04 399.67L244.63 399.5L246.17 399.31L247.66 399.07L249.12 398.8L250.53 398.49L251.9 398.15L253.22 397.77L254.5 397.36L255.74 396.91L256.94 396.43L258.09 395.91L259.19 395.35L260.26 394.77L261.28 394.14L262.25 393.48L263.18 392.79L264.07 392.06L264.91 391.3L265.71 390.5L266.46 389.67L267.17 388.81L267.84 387.91L268.45 386.98L269.03 386.01L269.56 385.01L270.04 383.97L270.48 382.9L270.87 381.8L271.21 380.67L271.51 379.5L271.77 378.3L271.98 377.06L272.14 375.79L272.25 374.49L272.32 373.16L272.35 371.79L272.32 370.43L272.25 369.1L272.13 367.8L271.96 366.53L271.75 365.3L271.48 364.11L271.17 362.95L270.81 361.82L270.4 360.72L269.95 359.66L269.44 358.64L268.89 357.65L268.3 356.69L267.65 355.77L266.96 354.88L266.22 354.03L265.43 353.21L264.6 352.42L263.72 351.67L262.79 350.96L261.81 350.27L260.79 349.63L259.72 349.02L258.61 348.44L257.44 347.9L256.23 347.39L254.98 346.91L253.68 346.48L252.33 346.07L250.93 345.7L249.49 345.37L248 345.07L246.47 344.81L244.89 344.58L243.26 344.39L241.59 344.23L239.87 344.1L238.11 344.02L236.3 343.96L234.44 343.95L197.51 343.95L197.51 399.97ZM197.51 326.8L228.88 326.8L230.6 326.78L232.28 326.73L233.92 326.64L235.52 326.52L237.08 326.36L238.6 326.17L240.08 325.95L241.52 325.69L242.92 325.39L244.27 325.06L245.58 324.7L246.86 324.31L248.09 323.88L249.27 323.41L250.42 322.92L251.52 322.39L252.58 321.83L253.6 321.23L254.57 320.61L255.5 319.95L256.39 319.25L257.23 318.53L258.03 317.77L258.79 316.98L259.5 316.16L260.17 315.31L260.79 314.43L261.37 313.51L261.9 312.57L262.39 311.59L262.83 310.58L263.22 309.55L263.57 308.48L263.88 307.38L264.13 306.25L264.35 305.09L264.51 303.9L264.63 302.67L264.7 301.42L264.72 300.14L264.7 298.97L264.64 297.83L264.54 296.71L264.4 295.62L264.23 294.55L264.01 293.52L263.75 292.51L263.46 291.53L263.13 290.57L262.76 289.64L262.35 288.75L261.9 287.88L261.42 287.04L260.9 286.22L260.34 285.44L259.74 284.68L259.11 283.96L258.45 283.26L257.74 282.59L257 281.95L256.23 281.34L255.41 280.76L254.57 280.22L253.69 279.7L252.77 279.21L251.82 278.75L250.83 278.32L249.81 277.92L248.76 277.56L247.67 277.22L246.55 276.92L245.39 276.65L244.21 276.4L242.98 276.2L241.73 276.02L240.44 275.87L239.12 275.76L237.77 275.68L236.39 275.63L234.98 275.61L197.51 275.61L197.51 326.8Z" id="h1HaOhEhRw"></path>
    </defs>
    <g>
        <g>
            <use xlink:href="#i5s7LSUN" opacity="1" fill="#ffffff" fill-opacity="1"></use>
            <g>
                <use xlink:href="#i5s7LSUN" opacity="1" fill-opacity="0" stroke="#ffffff" stroke-width="1" stroke-opacity="1"></use>
            </g>
        </g>
        <g>
            <use xlink:href="#h1HaOhEhRw" opacity="1" fill="#ffffff" fill-opacity="1"></use>
            <g>
                <use xlink:href="#h1HaOhEhRw" opacity="1" fill-opacity="0" stroke="#000000" stroke-width="1" stroke-opacity="0"></use>
            </g>
        </g>
    </g>
</svg>